<?xml  version="1.0" encoding="UTF-8"?>
<!DOCTYPE svg PUBLIC "-//W3C//DTD SVG 1.0//EN" "http://www.w3.org/TR/2001/REC-SVG-20010904/DTD/svg10.dtd" >
<svg xmlns="http://www.w3.org/2000/svg" >
<metadata>
<version>1.0</version>
<id><![CDATA[Proxima N W01 X Cd Smbd]]></id>
<vendor>Monotype Imaging Inc.</vendor>
<credits>
<name>Fonts.com WebFonts</name>
<URL>http://webfonts.fonts.com</URL>
<role>Home of the Web fonts</role>
</credits>
<license>
<URL>http://webfonts.fonts.com/Legal</URL>
</license>
<copyright><![CDATA[Copyright (c) Mark Simonson, 2005. All rights reserved.]]></copyright>
<trademark><![CDATA[Proxima Nova is a trademark of Mark Simonson.]]></trademark>
<licensee>
<name></name>
</licensee>
</metadata>
<defs >
<font horiz-adv-x="367" id="195b9d07-164f-4c36-9fec-5e8854056382">
<font-face font-family="" panose-1="2 0 5 6 3 0 0 2 0 4" ascent="741" descent="-259" units-per-em="1000" alphabetic="0">
</font-face>
<missing-glyph horiz-adv-x="0" />

<glyph unicode="&#xA;" />
<glyph unicode="&#xD;" horiz-adv-x="0" />
<glyph unicode=" " horiz-adv-x="167" />
<glyph unicode="!" horiz-adv-x="239" d="M80 198L62 667H177L160 198H80ZM119 -11Q93 -11 74 8T55 54Q55 80 74 99T119 118Q146 118 165 99T184 54Q184 28 165 9T119 -11Z"  />
<glyph unicode="&quot;" horiz-adv-x="366" d="M82 399Q73 457 66 505Q63 525 60 545T55 581T52 609T50 623Q50 646 66 661T104 677Q126 677 142 662T158 623Q158 620 157 609T153 582T148 545T142 505Q135 457 126 399H82ZM240 399Q231 457 224 505Q221 525 218 545T213 581T210 609T208 623Q208 646 223 661T262 677Q285 677 300 662T316 623Q316 620 315 609T311 582T306 545T300 505Q293 457 284 399H240Z"  />
<glyph unicode="#" horiz-adv-x="441" d="M175 0L218 177H151L110 0H38L79 177H16L30 240H94L137 427H73L86 489H151L193 667H265L224 489H290L331 667H403L362 489H425L412 427H347L304 240H370L356 177H289L248 0H175ZM275 427H209L167 240H231L275 427Z"  />
<glyph unicode="$" horiz-adv-x="369" d="M158 -11Q68 -6 16 52L63 134Q83 108 111 95T169 81Q201 81 222 105T244 167Q244 200 229 224T190 269T139 310T89 356T50 417T34 501Q34 563 66 610T158 672V768H231V676Q296 668 340 627L298 547Q261 585 209 585Q180 585 160 564T140 506Q140 477 155 455T194 413T245 371T295 323T334 259T350 173Q350 107 318 60T231 -4V-100H158V-11Z"  />
<glyph unicode="%" horiz-adv-x="580" d="M150 347Q121 347 98 359T59 394T33 446T24 511Q24 546 33 576T58 629T98 664T150 677Q179 677 202 665T241 630T267 577T276 511Q276 476 267 446T242 394T202 360T150 347ZM129 0L405 667H452L175 0H129ZM430 -12Q401 -12 378 0T339 35T313 87T304 152Q304 187 313 217T338 270T378 305T430 318Q459 318 482 306T521 271T547 218T556 152Q556 117 547 87T522 35T482 1T430 -12ZM150 407Q179 407 194 436T210 511Q210 558 195 587T150 616Q121 616 106 587T90 511Q90 466 105 437T150 407ZM430 49Q459 49 474 78T490 152Q490 199 475 228T430 258Q401 258 386 229T370 152Q370 107 385 78T430 49Z"  />
<glyph unicode="&amp;" horiz-adv-x="426" d="M325 0L295 49Q269 20 239 4T172 -12Q111 -12 71 35T31 169Q31 206 39 235T60 289T92 332T129 369Q112 410 103 446T93 513Q93 549 102 579T127 631T165 665T215 677Q239 677 260 667T297 638T322 595T331 541Q331 505 322 478T297 429T263 387T223 350Q232 329 242 310T261 273Q270 255 279 239T296 208Q307 240 314 272T328 332L404 298Q393 250 378 207T344 125Q361 97 381 68T426 0H325ZM190 64Q209 64 225 78T256 116Q241 142 228 165T204 211Q193 230 184 249T164 289Q147 266 137 239T126 174Q126 123 144 94T190 64ZM177 513Q177 494 181 472T193 426Q217 449 233 475T250 538Q250 573 240 590T215 607Q195 607 186 585T177 513Z"  />
<glyph unicode="&apos;" horiz-adv-x="208" d="M82 399Q73 457 66 505Q63 525 60 545T55 581T52 609T50 623Q50 646 66 661T104 677Q126 677 142 662T158 623Q158 620 157 609T153 582T148 545T142 505Q135 457 126 399H82Z"  />
<glyph unicode="(" horiz-adv-x="237" d="M149 -199Q98 -96 73 13T47 243Q47 364 72 473T149 685L217 656Q186 562 168 463T150 243Q150 123 168 24T217 -169L149 -199Z"  />
<glyph unicode=")" horiz-adv-x="237" d="M20 -169Q51 -76 69 23T87 243Q87 364 69 463T20 656L87 685Q138 582 164 473T190 243Q190 122 164 13T87 -199L20 -169Z"  />
<glyph unicode="*" horiz-adv-x="313" d="M131 381L136 494L41 433L15 478L115 529L15 580L41 625L136 564L131 677H182L177 564L272 625L298 580L197 529L298 478L272 433L177 494L182 381H131Z"  />
<glyph unicode="+" horiz-adv-x="381" d="M224 306V157H157V306H29V368H157V511H224V368H352V306H224Z"  />
<glyph unicode="&#x2c;" horiz-adv-x="239" d="M189 32Q189 -18 164 -60T100 -130L57 -95Q81 -80 101 -54T126 -1Q124 -2 120 -2T111 -3Q87 -3 71 13T55 55Q55 81 73 99T118 118Q147 118 168 96T189 32Z"  />
<glyph unicode="-" horiz-adv-x="238" d="M30 201V282H208V201H30Z"  />
<glyph unicode="." horiz-adv-x="239" d="M120 -10Q94 -10 75 9T55 54Q55 80 74 99T120 118Q146 118 165 99T184 54Q184 28 165 9T120 -10Z"  />
<glyph unicode="/" horiz-adv-x="216" d="M0 -20L147 687H216L69 -20H0Z"  />
<glyph unicode="0" horiz-adv-x="436" d="M218 -12Q167 -12 132 18T76 98T46 209T36 333Q36 395 45 456T76 567T132 646T218 677Q269 677 304 647T360 567T390 457T400 333Q400 271 391 210T361 99T304 19T218 -12ZM218 81Q243 81 258 102T281 157T291 237T293 333Q293 383 291 428T281 508T258 563T218 584Q193 584 178 564T156 509T146 429T143 333Q143 283 145 238T155 158T177 102T218 81Z"  />
<glyph unicode="1" horiz-adv-x="324" d="M163 0V531L68 430L7 494L176 667H267V0H163Z"  />
<glyph unicode="2" horiz-adv-x="419" d="M46 0V87Q98 159 134 212T196 305T237 371T260 420T271 458T274 494Q274 532 255 558T202 584Q138 584 99 506L30 567Q61 619 102 648T206 677Q246 677 278 664T332 627T367 570T380 496Q380 463 372 430T341 352T281 245T182 92H382V0H46Z"  />
<glyph unicode="3" horiz-adv-x="418" d="M203 -12Q140 -12 94 20T24 98L97 158Q114 125 138 103T198 81Q244 81 261 111T279 189Q279 220 271 240T251 273T223 290T194 295Q183 295 173 295T155 293V388Q161 387 172 387T190 387Q227 387 249 411T272 483Q272 536 253 560T198 584Q166 584 142 565T102 514L32 569Q60 623 105 650T203 677Q240 677 271 667T326 634T362 578T375 498Q375 472 368 447T348 402T316 366T274 345Q297 340 317 326T351 290T374 241T383 182Q383 139 371 104T336 43T280 3T203 -12Z"  />
<glyph unicode="4" horiz-adv-x="403" d="M233 0V158H15V251L214 667H337V250H388V158H337V0H233ZM233 542L101 250H233V542Z"  />
<glyph unicode="5" horiz-adv-x="423" d="M208 -12Q142 -12 102 16T32 98L103 158Q120 121 143 101T202 81Q221 81 236 91T262 119T277 160T283 208Q283 335 210 335Q184 335 166 322T127 277L49 299V667H360V575H153V372Q167 396 192 411T247 426Q311 426 350 371T390 210Q390 164 378 124T342 53T284 6T208 -12Z"  />
<glyph unicode="6" horiz-adv-x="421" d="M223 -12Q169 -12 134 16T76 93T45 203T36 333Q36 403 48 466T85 575T148 649T240 677Q284 677 320 656T377 597L320 524Q307 553 289 568T243 584Q216 584 197 563T165 509T148 433T142 348V337Q156 373 184 398T251 424Q280 424 305 411T350 370T380 303T391 210Q391 165 380 125T347 54T294 6T223 -12ZM217 81Q236 81 248 92T269 120T280 160T284 206Q284 243 279 267T264 307T242 328T217 334Q202 334 191 327T170 307T154 279T142 248Q143 224 146 195T157 141T179 98T217 81Z"  />
<glyph unicode="7" horiz-adv-x="364" d="M74 0L231 575H19V667H345V595L185 0H74Z"  />
<glyph unicode="8" horiz-adv-x="419" d="M210 -12Q122 -12 78 35T33 164Q33 195 42 224T67 276T102 317T142 344Q124 352 106 367T73 403T50 450T41 508Q41 551 55 583T92 636T146 667T210 677Q243 677 273 667T327 636T365 583T379 508Q379 477 370 451T347 403T314 367T277 344Q297 335 316 318T352 277T377 225T387 165Q387 82 342 35T210 -12ZM210 379Q214 381 224 388T246 409T266 443T275 490Q275 534 259 559T210 584Q177 584 161 559T144 490Q144 463 153 443T173 410T195 389T210 379ZM210 81Q240 81 261 105T282 179Q282 209 273 232T251 271T227 296T210 306Q204 305 192 296T168 271T147 232T138 179Q138 130 158 106T210 81Z"  />
<glyph unicode="9" horiz-adv-x="421" d="M180 -11Q136 -11 100 10T44 69L101 142Q114 113 132 98T178 82Q204 82 223 102T254 156T273 231T279 317V329Q265 293 237 268T170 242Q141 242 116 255T71 296T41 363T30 456Q30 501 41 541T74 612T127 660T198 678Q251 678 287 650T344 573T375 463T385 333Q385 262 373 200T336 91T272 17T180 -11ZM203 332Q218 332 230 339T251 359T266 387T278 418Q278 442 275 471T265 525T243 568T205 585Q186 585 173 574T152 546T140 506T136 460Q136 423 141 399T156 359T178 338T203 332Z"  />
<glyph unicode=":" horiz-adv-x="239" d="M120 362Q94 362 75 381T55 426Q55 452 74 471T120 490Q146 490 165 471T184 426Q184 400 165 381T120 362ZM120 -10Q94 -10 75 9T55 54Q55 80 74 99T120 118Q146 118 165 99T184 54Q184 28 165 9T120 -10Z"  />
<glyph unicode=";" horiz-adv-x="239" d="M120 362Q94 362 75 381T55 426Q55 452 74 471T120 490Q146 490 165 471T184 426Q184 400 165 381T120 362ZM189 35Q189 -15 164 -57T100 -128L57 -92Q69 -85 80 -74T101 -51T117 -25T126 1Q124 0 120 0T111 -1Q87 -1 71 15T55 58Q55 84 73 102T118 121Q147 121 168 99T189 35Z"  />
<glyph unicode="&lt;" horiz-adv-x="381" d="M29 301V368L352 511V438L103 334L352 232V158L29 301Z"  />
<glyph unicode="=" horiz-adv-x="381" d="M29 399V461H352V399H29ZM29 207V269H352V207H29Z"  />
<glyph unicode="&gt;" horiz-adv-x="381" d="M29 158V232L278 334L29 438V511L352 368V301L29 158Z"  />
<glyph unicode="?" horiz-adv-x="320" d="M125 192Q100 226 100 278Q100 321 115 349T149 403T182 453T198 515Q198 528 194 541T181 564T162 580T135 587Q101 587 75 555L31 621Q57 650 90 664T158 678Q191 678 217 667T262 637T291 591T301 535Q301 488 284 455T245 394T206 337T188 273Q188 259 193 246T205 224L125 192ZM163 -10Q137 -10 118 9T98 54Q98 80 117 99T163 118Q189 118 208 99T227 54Q227 28 208 9T163 -10Z"  />
<glyph unicode="@" horiz-adv-x="620" d="M267 -70Q213 -70 170 -50T97 7T51 96T35 215Q35 296 62 372T135 508T244 603T376 639Q422 639 460 623T526 575T569 498T585 396Q585 331 572 275T537 176T485 110T425 85Q392 85 371 103T345 153L344 161Q325 132 299 109T233 85Q216 85 200 91T170 111T148 150T140 211Q140 262 153 313T191 405T250 473T327 499Q357 499 374 479T399 430L410 483H494L438 220Q437 216 436 208T435 195Q435 171 441 161T464 151Q474 151 488 167T516 214T538 291T547 395Q547 497 500 550T374 603Q312 603 258 570T162 481T97 357T73 216Q73 161 86 115T124 36T186 -16T272 -35Q315 -35 349 -20T415 21L433 -7Q395 -37 355 -53T267 -70ZM272 153Q301 153 320 176T354 223L386 371Q381 393 371 411T339 430Q312 430 292 409T257 357T235 290T228 224Q228 191 238 172T272 153Z"  />
<glyph unicode="A" horiz-adv-x="398" d="M288 0L265 136H133L110 0H3L139 667H259L395 0H288ZM199 548L145 228H253L199 548Z"  />
<glyph unicode="B" horiz-adv-x="431" d="M57 0V667H233Q272 667 301 654T348 618T376 564T386 497Q386 434 361 396T293 344Q316 340 334 326T366 289T387 238T395 180Q395 141 386 108T359 51T311 14T240 0H57ZM208 386Q248 386 263 412T279 480Q279 522 264 548T208 575H161V386H208ZM212 92Q252 92 270 118T288 193Q288 235 270 264T212 294H161V92H212Z"  />
<glyph unicode="C" horiz-adv-x="412" d="M230 -12Q179 -12 142 14T82 87T47 196T36 333Q36 407 47 470T81 579T142 652T230 678Q267 678 292 665T336 631T365 584T385 533L301 502Q290 540 275 562T230 585Q206 585 190 566T163 514T148 434T143 333Q143 279 147 233T162 153T189 100T230 81Q263 81 278 109T302 180L387 149Q380 121 369 93T340 41T295 3T230 -12Z"  />
<glyph unicode="D" horiz-adv-x="455" d="M57 0V667H206Q263 667 303 642T369 572T407 466T419 333Q419 261 407 200T370 94T304 25T207 0H57ZM206 92Q261 92 286 157T312 333Q312 447 287 511T206 575H161V92H206Z"  />
<glyph unicode="E" d="M57 0V667H330V575H161V386H323V294H161V92H330V0H57Z"  />
<glyph unicode="F" horiz-adv-x="365" d="M57 0V667H330V575H161V386H323V294H161V0H57Z"  />
<glyph unicode="G" horiz-adv-x="435" d="M230 -12Q180 -12 144 13T83 84T48 193T36 333Q36 410 47 473T83 582T143 653T230 678Q263 678 288 667T332 635T364 589T385 533L301 502Q291 538 276 561T230 585Q187 585 165 521T143 333Q143 211 165 146T230 81Q273 81 295 116V260H214V352H388V72Q358 31 320 10T230 -12Z"  />
<glyph unicode="H" horiz-adv-x="463" d="M302 0V297H161V0H57V667H161V389H302V667H407V0H302Z"  />
<glyph unicode="I" horiz-adv-x="218" d="M57 0V667H161V0H57Z"  />
<glyph unicode="J" horiz-adv-x="337" d="M115 -12Q86 -12 59 -3T7 28L39 113Q53 96 70 89T104 81Q138 81 157 100T177 161V667H281V156Q281 68 235 28T115 -12Z"  />
<glyph unicode="K" horiz-adv-x="448" d="M323 0L204 269L161 184V0H57V667H161V342L314 667H429L264 352L442 0H323Z"  />
<glyph unicode="L" horiz-adv-x="351" d="M57 0V667H161V92H330V0H57Z"  />
<glyph unicode="M" horiz-adv-x="591" d="M432 0V425L314 0H277L161 425V0H57V667H192L296 294L402 667H535V0H432Z"  />
<glyph unicode="N" horiz-adv-x="463" d="M308 0L161 386V0H57V667H161L302 292V667H407V0H308Z"  />
<glyph unicode="O" horiz-adv-x="459" d="M229 -12Q177 -12 141 14T81 87T47 197T36 333Q36 405 46 468T80 577T140 651T229 678Q281 678 317 651T377 578T412 468T423 333Q423 260 412 197T378 88T318 15T229 -12ZM229 81Q253 81 270 101T297 155T311 235T316 333Q316 386 312 432T297 512T270 565T229 585Q205 585 189 566T162 512T148 432T143 333Q143 281 147 235T162 155T188 101T229 81Z"  />
<glyph unicode="P" horiz-adv-x="418" d="M57 0V667H218Q264 667 297 651T351 606T383 540T394 461Q394 420 384 383T352 317T297 272T218 255H161V0H57ZM208 347Q247 347 267 378T287 461Q287 512 267 543T208 575H161V347H208Z"  />
<glyph unicode="Q" horiz-adv-x="459" d="M229 -12Q177 -12 141 14T81 87T47 197T36 333Q36 405 46 468T80 577T140 651T229 678Q281 678 317 651T377 578T412 468T423 333Q423 235 404 157T340 33L355 -6L281 -35L270 -7Q248 -12 229 -12ZM236 81L185 215L259 244L295 149Q306 184 311 231T316 333Q316 386 312 432T297 512T270 565T229 585Q205 585 189 566T162 512T148 432T143 333Q143 281 147 235T162 155T188 101T229 81H236Z"  />
<glyph unicode="R" horiz-adv-x="438" d="M288 0L209 255H161V0H57V667H223Q260 667 291 653T345 612T381 548T394 464Q394 421 386 390T364 336T336 301T305 280L400 0H288ZM208 347Q247 347 267 378T287 461Q287 512 267 543T208 575H161V347H208Z"  />
<glyph unicode="S" horiz-adv-x="378" d="M175 -12Q75 -12 16 52L63 134Q83 108 111 95T169 81Q201 81 222 105T244 167Q244 200 229 224T190 269T139 310T89 356T50 417T34 501Q34 538 46 570T80 626T134 664T206 678Q245 678 279 665T340 627L298 547Q261 585 209 585Q180 585 160 564T140 506Q140 477 155 455T194 413T245 371T295 323T334 259T350 173Q350 133 338 99T302 41T247 2T175 -12Z"  />
<glyph unicode="T" horiz-adv-x="346" d="M121 0V575H18V667H328V575H225V0H121Z"  />
<glyph unicode="U" horiz-adv-x="464" d="M232 -12Q197 -12 165 -1T109 35T71 96T57 184V667H161V179Q161 124 180 102T232 80Q264 80 283 102T303 179V667H407V184Q407 133 393 96T355 35T299 0T232 -12Z"  />
<glyph unicode="V" horiz-adv-x="398" d="M139 0L3 667H110L199 135L288 667H395L259 0H139Z"  />
<glyph unicode="W" horiz-adv-x="587" d="M355 0L293 466L232 0H125L14 667H121L183 184L251 667H336L405 184L466 667H573L462 0H355Z"  />
<glyph unicode="X" horiz-adv-x="408" d="M292 0L204 246L116 0H1L144 340L9 667H124L204 432L284 667H400L264 340L408 0H292Z"  />
<glyph unicode="Y" horiz-adv-x="405" d="M151 0V279L-3 667H109L203 382L298 667H408L255 279V0H151Z"  />
<glyph unicode="Z" horiz-adv-x="360" d="M31 0V89L206 575H31V667H323V582L145 92H330V0H31Z"  />
<glyph unicode="[" horiz-adv-x="195" d="M35 -190V678H177V612H105V-124H177V-190H35Z"  />
<glyph unicode="\" horiz-adv-x="216" d="M1 687H69L216 -20H148L1 687Z"  />
<glyph unicode="]" horiz-adv-x="195" d="M17 -190V-124H89V612H17V678H160V-190H17Z"  />
<glyph unicode="^" horiz-adv-x="334" d="M245 333L167 590L89 333H19L132 667H202L315 333H245Z"  />
<glyph unicode="_" horiz-adv-x="279" d="M-3 -106V-40H282V-106H-3Z"  />
<glyph unicode="`" horiz-adv-x="164" d="M103 556L0 700H85L164 556H103Z"  />
<glyph unicode="a" horiz-adv-x="398" d="M254 0V45Q237 16 210 2T156 -12Q99 -12 64 31T28 149Q28 222 63 264T156 307Q182 307 210 294T254 253V320Q254 365 237 390T180 415Q156 415 132 404T83 366L47 432Q78 466 120 480T198 495Q270 495 309 458T348 340V0H254ZM187 53Q207 53 225 68T254 110V183Q243 209 225 225T187 241Q154 241 138 214T122 147Q122 109 138 81T187 53Z"  />
<glyph unicode="b" horiz-adv-x="406" d="M144 139Q152 111 170 91T208 71Q229 71 242 84T264 121T275 175T278 241Q278 276 275 307T264 361T243 398T208 412Q188 412 170 392T144 343V139ZM50 0V667H144V420Q159 459 185 477T237 495Q272 495 298 477T341 424T366 344T375 241Q375 184 367 138T341 58T298 6T237 -12Q211 -12 186 7T144 62V0H50Z"  />
<glyph unicode="c" horiz-adv-x="333" d="M205 -12Q163 -12 131 7T77 61T43 141T31 242Q31 296 42 342T76 423T131 476T205 495Q243 495 270 483T314 451L281 379Q252 412 220 412Q196 412 179 398T150 361T134 307T128 242Q128 208 133 177T150 123T178 85T220 71Q252 71 281 104L314 32Q297 12 270 0T205 -12Z"  />
<glyph unicode="d" horiz-adv-x="406" d="M262 0V62Q246 26 221 7T169 -12Q134 -12 108 6T65 57T40 137T31 241Q31 297 39 343T65 424T108 476T169 495Q195 495 221 477T262 420V667H356V0H262ZM198 71Q218 71 236 91T262 139V344Q254 371 236 391T198 412Q177 412 164 399T142 362T131 307T128 241Q128 206 131 176T142 122T163 85T198 71Z"  />
<glyph unicode="e" horiz-adv-x="391" d="M213 -12Q168 -12 134 7T77 60T43 140T31 242Q31 294 41 340T73 421T126 475T201 495Q244 495 275 476T326 422T355 342T364 244V211H123Q124 147 148 106T222 65Q243 65 264 78T302 117L351 66Q325 29 289 9T213 -12ZM272 278Q272 302 269 326T258 371T235 405T198 418Q175 418 161 405T138 370T127 325T123 278H272Z"  />
<glyph unicode="f" horiz-adv-x="239" d="M65 0V401H19V483H65V546Q65 609 95 643T183 677Q205 677 226 671T261 650L234 576Q219 594 200 594Q179 594 169 581T159 546V483H222V401H159V0H65Z"  />
<glyph unicode="g" horiz-adv-x="406" d="M187 -196Q145 -196 111 -185T47 -145L81 -67Q101 -88 125 -100T178 -113Q216 -113 239 -87T262 -3V76Q246 39 221 20T169 0Q99 0 65 66T31 247Q31 303 39 348T65 426T108 477T169 495Q195 495 221 477T262 420V483H356V9Q356 -51 342 -90T305 -153T252 -186T187 -196ZM198 83Q218 83 236 103T262 151V344Q254 371 236 391T198 412Q177 412 164 399T142 364T131 312T128 247Q128 212 131 183T142 131T163 96T198 83Z"  />
<glyph unicode="h" horiz-adv-x="402" d="M258 0V357Q258 412 217 412Q193 412 174 390T144 342V0H50V667H144V418Q151 433 163 447T190 471T221 488T255 495Q307 495 329 468T352 388V0H258Z"  />
<glyph unicode="i" horiz-adv-x="194" d="M97 546Q73 546 55 563T37 605Q37 630 55 647T97 665Q122 665 139 648T157 605Q157 580 140 563T97 546ZM50 0V483H144V0H50Z"  />
<glyph unicode="j" horiz-adv-x="194" d="M97 546Q73 546 55 563T37 605Q37 630 55 647T97 665Q122 665 139 648T157 605Q157 580 140 563T97 546ZM24 -196Q-16 -196 -35 -169L-9 -97Q-1 -113 17 -113Q32 -113 41 -100T50 -54V483H144V-54Q144 -128 116 -162T24 -196Z"  />
<glyph unicode="k" horiz-adv-x="385" d="M273 0L193 204L144 117V0H50V667H144V241L271 483H373L255 268L375 0H273Z"  />
<glyph unicode="l" horiz-adv-x="194" d="M50 0V667H144V0H50Z"  />
<glyph unicode="m" horiz-adv-x="610" d="M466 0V356Q466 412 425 412Q400 412 381 390T352 342V0H258V356Q258 412 217 412Q192 412 173 390T144 342V0H50V483H144V418Q151 432 162 446T189 471T221 488T255 495Q293 495 318 475T349 414Q356 430 368 444T395 470T428 488T463 495Q507 495 533 471T560 387V0H466Z"  />
<glyph unicode="n" horiz-adv-x="402" d="M258 0V356Q258 412 217 412Q193 412 174 390T144 342V0H50V483H144V418Q151 433 163 447T190 471T221 488T255 495Q307 495 329 467T352 387V0H258Z"  />
<glyph unicode="o" horiz-adv-x="402" d="M201 -12Q156 -12 124 9T71 65T41 146T31 242Q31 292 40 337T71 418T124 474T201 495Q246 495 278 474T330 418T360 338T370 242Q370 192 361 146T331 65T278 9T201 -12ZM201 71Q222 71 236 85T258 123T270 178T273 242Q273 275 270 305T259 360T236 398T201 412Q180 412 166 398T144 360T132 306T129 242Q129 209 132 178T143 123T166 85T201 71Z"  />
<glyph unicode="p" horiz-adv-x="406" d="M237 -12Q211 -12 185 6T144 63V-184H50V483H144V421Q160 457 185 476T237 495Q272 495 298 477T341 426T366 346T375 242Q375 186 367 139T341 59T298 7T237 -12ZM208 71Q229 71 242 84T264 121T275 176T278 242Q278 276 275 307T264 361T243 398T208 412Q188 412 170 393T144 345V139Q152 112 170 92T208 71Z"  />
<glyph unicode="q" horiz-adv-x="406" d="M198 71Q218 71 236 91T262 139V345Q254 373 236 392T198 412Q177 412 164 399T142 362T131 307T128 242Q128 207 131 176T142 122T163 85T198 71ZM169 -12Q134 -12 108 6T65 58T40 139T31 242Q31 299 39 345T65 425T108 477T169 495Q195 495 220 476T262 421V483H356V-184H262V63Q247 24 221 6T169 -12Z"  />
<glyph unicode="r" horiz-adv-x="268" d="M50 0V483H144V412Q160 447 189 470T254 494V400Q243 403 234 403Q206 403 182 383T144 333V0H50Z"  />
<glyph unicode="s" horiz-adv-x="330" d="M162 -12Q112 -12 76 4T16 50L57 115Q76 92 100 78T154 63Q182 63 200 79T219 123Q219 146 205 161T171 190T126 217T81 250T46 296T32 365Q32 392 41 415T69 457T114 485T175 495Q213 495 246 480T305 439L265 376Q251 395 228 407T177 420Q151 420 136 405T120 368Q120 347 134 332T169 304T214 277T259 243T294 195T308 126Q308 95 297 70T267 26T220 -2T162 -12Z"  />
<glyph unicode="t" horiz-adv-x="247" d="M165 -12Q111 -12 88 16T65 103V401H18V483H65V615H159V483H222V401H159V120Q159 95 165 83T187 71Q205 71 217 86L239 14Q227 2 209 -5T165 -12Z"  />
<glyph unicode="u" horiz-adv-x="402" d="M258 0V63Q243 33 213 11T147 -12Q95 -12 73 15T50 95V483H144V126Q144 71 185 71Q209 71 228 92T258 139V483H352V0H258Z"  />
<glyph unicode="v" horiz-adv-x="357" d="M127 0L5 483H105L178 117L253 483H352L229 0H127Z"  />
<glyph unicode="w" horiz-adv-x="579" d="M364 0L290 355L215 0H117L9 483H106L172 129L241 483H333L406 129L473 483H571L462 0H364Z"  />
<glyph unicode="x" horiz-adv-x="352" d="M244 0L176 173L107 0H7L118 244L12 483H112L176 315L240 483H339L234 244L345 0H244Z"  />
<glyph unicode="y" horiz-adv-x="357" d="M51 -107Q56 -110 62 -111T74 -113Q91 -113 100 -104T115 -74L131 -13L5 483H105L178 119L253 483H352L204 -94Q187 -154 160 -175T86 -196Q75 -196 60 -194T37 -189L51 -107Z"  />
<glyph unicode="z" horiz-adv-x="321" d="M30 0V72L176 401H30V483H287V414L141 82H291V0H30Z"  />
<glyph unicode="{" horiz-adv-x="212" d="M166 -190Q145 -190 126 -182T91 -159T66 -124T57 -78V147Q57 175 44 195T5 215V273Q31 273 44 293T57 341V565Q57 590 66 611T90 647T125 670T166 678H195V612H166Q150 612 139 599T127 565V333Q127 301 117 278T82 244Q107 233 117 210T127 155V-78Q127 -98 138 -111T166 -125H195V-190H166Z"  />
<glyph unicode="|" horiz-adv-x="179" d="M57 -20V687H122V-20H57Z"  />
<glyph unicode="}" horiz-adv-x="212" d="M17 -125H46Q62 -125 73 -112T85 -78V155Q85 187 95 210T130 244Q105 255 95 278T85 333V565Q85 586 74 599T46 612H17V678H46Q67 678 86 670T121 647T146 611T155 565V341Q155 313 168 293T207 273V215Q181 215 168 195T155 147V-78Q155 -103 146 -123T122 -159T87 -182T46 -190H17V-125Z"  />
<glyph unicode="~" horiz-adv-x="407" d="M380 661Q378 624 374 582T357 503T323 443T264 419Q239 419 224 432T199 467T184 511T174 556T162 590T143 604Q119 604 110 561T94 418L27 425Q29 462 33 504T50 582T85 642T143 666Q168 666 184 652T209 618T223 573T234 529T245 494T264 480Q276 480 283 490T296 522T305 580T313 667L380 661Z"  />
<glyph unicode="&#xA0;" horiz-adv-x="167" />
<glyph unicode="&#xA1;" horiz-adv-x="239" d="M80 285H160L178 -184H62L80 285ZM55 429Q55 455 74 474T120 493Q146 493 165 474T185 429Q185 403 166 384T120 365Q94 365 75 384T55 429Z"  />
<glyph unicode="&#xA2;" horiz-adv-x="333" d="M175 -9Q140 -3 113 18T68 73T41 149T31 242Q31 291 40 334T68 410T113 464T175 492V565H246V490Q268 485 285 475T314 451L281 379Q272 389 264 396T246 407V76Q263 83 281 104L314 32Q289 2 246 -8V-100H175V-9ZM128 242Q128 192 139 151T175 88V395Q150 374 139 333T128 242Z"  />
<glyph unicode="&#xA3;" horiz-adv-x="405" d="M30 337H86Q71 366 59 400T47 482Q47 522 60 558T98 620T154 661T222 677Q280 677 321 646T375 553L292 517Q284 549 270 570T227 591Q201 591 180 563T159 480Q159 455 162 435T172 399T185 367T199 337H273V274H218Q221 256 221 235Q221 200 204 161T161 100Q172 105 181 107T198 109Q214 109 226 105T249 95T271 86T296 81Q318 81 335 90T362 113L393 31Q380 14 350 1T287 -12Q261 -12 245 -6T215 8T189 22T159 29Q124 29 77 -7L44 66Q82 91 104 130T127 210Q127 227 124 243T115 274H30V337Z"  />
<glyph unicode="&#xA4;" horiz-adv-x="419" d="M210 97Q183 97 161 104T121 124L57 59L0 116L70 185Q54 217 47 254T40 333Q40 375 47 412T71 481L0 552L57 609L123 542Q140 554 162 561T210 568Q236 568 257 561T296 542L363 609L420 552L348 480Q364 449 371 412T379 333Q379 291 372 254T348 184L420 113L363 56L296 122Q260 97 210 97ZM210 181Q232 181 247 193T271 227T285 275T289 333Q289 362 285 389T272 438T247 471T210 484Q188 484 173 472T149 438T135 390T131 333Q131 303 135 276T148 227T173 194T210 181Z"  />
<glyph unicode="&#xA5;" horiz-adv-x="405" d="M151 0V120H23V182H151V279H23V341H126L-3 667H109L203 382L298 667H408L279 341H380V279H255V182H380V120H255V0H151Z"  />
<glyph unicode="&#xA6;" horiz-adv-x="179" d="M57 -20V296H122V-20H57ZM57 371V687H122V371H57Z"  />
<glyph unicode="&#xA7;" horiz-adv-x="331" d="M308 308Q308 273 291 241T237 189Q275 161 291 130T308 57Q308 28 297 3T267 -40T221 -70T162 -81Q69 -81 16 -19L57 44Q63 36 73 27T95 9T123 -4T154 -10Q185 -10 202 9T219 55Q219 80 205 97T171 129T126 157T81 190T46 235T32 301Q32 339 53 371T114 414Q67 446 50 480T32 552Q32 580 42 603T71 642T114 668T167 677Q218 677 249 662T304 620L264 563Q241 589 221 599T176 609Q150 609 135 593T120 552Q120 529 134 513T169 482T214 454T259 421T294 374T308 308ZM225 288Q225 326 208 348T174 382Q139 374 127 355T115 316Q115 288 129 265T180 219Q204 232 214 250T225 288Z"  />
<glyph unicode="&#xA8;" horiz-adv-x="272" d="M267 606Q267 584 251 569T212 553Q190 553 175 568T159 606Q159 629 174 644T212 660Q235 660 251 645T267 606ZM113 606Q113 584 98 569T59 553Q37 553 21 568T5 606Q5 629 21 644T59 660Q82 660 97 645T113 606Z"  />
<glyph unicode="&#xA9;" horiz-adv-x="778" d="M734 334Q734 263 707 200T633 90T523 16T389 -11Q318 -11 255 16T145 90T71 200T44 334Q44 405 71 468T145 578T255 652T389 679Q460 679 523 652T633 578T707 468T734 334ZM701 334Q701 398 677 455T610 554T510 621T389 646Q325 646 268 622T169 555T102 455T77 334Q77 270 101 213T168 114T268 47T389 22Q453 22 510 46T609 113T676 213T701 334ZM540 189Q513 157 477 140T393 122Q349 122 311 138T245 182T201 250T184 334Q184 380 200 419T245 487T311 531T393 547Q440 547 476 530T539 481L512 454Q492 480 460 496T393 512Q359 512 329 499T275 463T238 407T224 334Q224 296 237 264T274 208T328 171T393 157Q429 157 460 173T512 215L540 189Z"  />
<glyph unicode="&#xAA;" horiz-adv-x="292" d="M181 326V358Q170 340 152 329T111 318Q73 318 48 345T22 421Q22 471 47 497T111 524Q134 524 152 514T181 487V532Q181 593 129 593Q114 593 97 585T62 557L35 604Q58 627 87 637T143 648Q195 648 223 621T251 535V326H181ZM135 365Q149 365 161 372T181 398V448Q173 467 161 474T135 482Q114 482 103 465T92 423Q92 398 103 382T135 365Z"  />
<glyph unicode="&#xAB;" horiz-adv-x="359" d="M254 63L164 243L254 420H329L239 243L329 63H254ZM120 63L30 243L120 420H195L105 243L195 63H120Z"  />
<glyph unicode="&#xAC;" horiz-adv-x="381" d="M352 207H287V399H29V461H352V207Z"  />
<glyph unicode="&#xAD;" horiz-adv-x="238" d="M30 201V282H208V201H30Z"  />
<glyph unicode="&#xAE;" horiz-adv-x="494" d="M459 465Q459 421 443 383T398 315T330 270T247 253Q203 253 165 269T97 315T52 382T35 465Q35 509 51 548T97 615T164 660T247 677Q291 677 330 661T397 616T442 548T459 465ZM429 465Q429 503 415 536T376 594T318 633T247 647Q209 647 176 633T118 595T79 537T65 465Q65 427 79 394T118 337T176 298T247 283Q285 283 318 297T376 336T415 394T429 465ZM305 343L242 439H199V343H166V586H265Q296 586 319 566T343 512Q343 492 336 478T318 456T297 444T281 440L346 343H305ZM309 512Q309 532 295 544T265 557H199V469H265Q281 469 295 481T309 512Z"  />
<glyph unicode="&#xAF;" horiz-adv-x="254" d="M0 568V625H254V568H0Z"  />
<glyph unicode="&#xB0;" horiz-adv-x="298" d="M275 550Q275 524 265 501T238 461T197 434T148 424Q122 424 99 434T59 461T32 501T22 550Q22 576 32 599T59 639T99 667T148 677Q174 677 197 667T237 640T265 599T275 550ZM220 550Q220 579 199 600T148 621Q119 621 99 600T78 550Q78 521 98 501T148 480Q177 480 198 500T220 550Z"  />
<glyph unicode="&#xB1;" horiz-adv-x="381" d="M224 306V157H157V306H29V368H157V511H224V368H352V306H224ZM29 34V96H352V34H29Z"  />
<glyph unicode="&#xB2;" horiz-adv-x="281" d="M29 421V475Q79 534 110 572T158 635T181 678T187 714Q187 738 173 753T136 768Q115 768 97 755T65 719L20 761Q41 793 70 810T140 827Q194 827 226 798T259 716Q259 694 252 673T229 624T186 563T120 480H261V421H29Z"  />
<glyph unicode="&#xB3;" horiz-adv-x="281" d="M262 531Q262 478 229 446T139 414Q96 414 65 432T17 479L65 522Q77 500 95 487T136 473Q165 473 177 490T190 535Q190 553 185 565T171 584T153 594T132 597Q124 597 117 597T104 596V655Q108 654 115 654T129 654Q155 654 170 667T185 710Q185 740 172 754T135 768Q114 768 97 756T67 723L21 763Q41 794 71 810T139 827Q190 827 223 801T256 719Q256 687 237 661T189 628Q218 623 240 596T262 531Z"  />
<glyph unicode="&#xB4;" horiz-adv-x="164" d="M61 556H0L79 700H164L61 556Z"  />
<glyph unicode="&#xB5;" horiz-adv-x="413" d="M144 -184H50V483H144V126Q144 70 187 70Q212 70 230 91T258 139V483H352V115Q352 94 357 83T380 71Q384 71 394 73L401 -6Q394 -8 383 -10T357 -12Q312 -12 290 8T261 73Q250 36 229 12T181 -12Q165 -12 157 -8T144 4V-184Z"  />
<glyph unicode="&#xB6;" horiz-adv-x="449" d="M335 -100V616H250V-100H199V323Q163 323 132 336T78 373T41 428T27 495Q27 531 40 562T77 616T132 653T199 667H387V-100H335Z"  />
<glyph unicode="&#xB7;" horiz-adv-x="239" d="M184 245Q184 219 165 200T119 180Q93 180 74 199T55 245Q55 271 74 290T119 309Q146 309 165 290T184 245Z"  />
<glyph unicode="&#xB8;" horiz-adv-x="175" d="M82 -193Q57 -193 36 -184T0 -162L20 -121Q35 -134 49 -141T80 -148Q98 -148 111 -138T124 -110Q124 -96 117 -88T98 -80Q82 -80 71 -93L34 -72L65 11H116L90 -54Q97 -49 103 -47T119 -44Q142 -44 158 -62T175 -111Q175 -148 149 -170T82 -193Z"  />
<glyph unicode="&#xB9;" horiz-adv-x="232" d="M111 421V727L53 667L11 710L121 821H184V421H111Z"  />
<glyph unicode="&#xBA;" horiz-adv-x="300" d="M150 318Q119 318 96 331T58 368T35 420T27 483Q27 516 34 545T57 598T96 634T150 648Q181 648 204 635T243 598T265 546T273 483Q273 450 266 421T243 368T205 332T150 318ZM150 375Q165 375 174 383T190 407T198 441T200 483Q200 505 198 524T190 558T175 581T150 590Q121 590 110 559T99 483Q99 461 101 442T110 407T125 384T150 375Z"  />
<glyph unicode="&#xBB;" horiz-adv-x="359" d="M105 63H30L120 243L30 420H105L195 243L105 63ZM239 63H164L254 243L164 420H239L329 243L239 63Z"  />
<glyph unicode="&#xBC;" horiz-adv-x="617" d="M111 267V573L53 513L11 556L121 667H184V267H111ZM568 95V0H496V95H351V153L480 400H568V153H603V95H568ZM496 319L413 153H496V319ZM192 0H146L422 667H469L192 0Z"  />
<glyph unicode="&#xBD;" horiz-adv-x="651" d="M111 267V573L53 513L11 556L121 667H184V267H111ZM399 0V54Q449 113 480 151T528 214T551 257T557 293Q557 317 543 332T506 347Q485 347 467 334T435 298L390 340Q411 372 440 389T510 406Q564 406 596 377T629 295Q629 273 622 252T599 203T556 142T490 59H631V0H399ZM192 0H146L422 667H469L192 0Z"  />
<glyph unicode="&#xBE;" horiz-adv-x="653" d="M604 95V0H532V95H387V153L516 400H604V153H639V95H604ZM532 319L449 153H532V319ZM228 0H182L458 667H505L228 0ZM262 377Q262 324 229 292T139 260Q96 260 65 278T17 325L65 368Q77 346 95 333T136 319Q165 319 177 336T190 381Q190 399 185 411T171 430T153 440T132 443Q124 443 117 443T104 442V501Q108 500 115 500T129 500Q155 500 170 513T185 556Q185 586 172 600T135 614Q114 614 97 602T67 569L21 609Q41 640 71 656T139 673Q190 673 223 647T256 565Q256 533 237 507T189 474Q218 469 240 442T262 377Z"  />
<glyph unicode="&#xBF;" horiz-adv-x="280" d="M194 289Q220 256 220 203Q220 160 205 131T171 78T138 28T122 -34Q122 -47 126 -60T139 -83T158 -99T185 -106Q219 -106 245 -74L289 -140Q263 -169 230 -182T162 -196Q129 -196 103 -185T58 -155T29 -110T19 -54Q19 -7 36 26T75 88T114 144T132 208Q132 222 127 235T115 257L194 289ZM157 493Q183 493 202 474T222 429Q222 403 203 384T157 365Q131 365 112 384T93 429Q93 455 112 474T157 493Z"  />
<glyph unicode="&#xC0;" horiz-adv-x="398" d="M288 0L265 136H133L110 0H3L139 667H259L395 0H288ZM199 548L145 228H253L199 548ZM179 723L76 867H161L240 723H179Z"  />
<glyph unicode="&#xC1;" horiz-adv-x="398" d="M288 0L265 136H133L110 0H3L139 667H259L395 0H288ZM199 548L145 228H253L199 548ZM219 723H158L237 867H322L219 723Z"  />
<glyph unicode="&#xC2;" horiz-adv-x="398" d="M255 723L198 821L145 723H91L155 867H242L308 723H255ZM288 0L265 136H133L110 0H3L139 667H259L395 0H288ZM199 548L145 228H253L199 548Z"  />
<glyph unicode="&#xC3;" horiz-adv-x="398" d="M288 0L265 136H133L110 0H3L139 667H259L395 0H288ZM199 548L145 228H253L199 548ZM241 721Q221 721 209 734T188 762T172 791T155 804Q144 804 136 786T128 727H78Q78 784 98 822T158 861Q178 861 190 848T211 820T227 791T245 778Q256 778 263 796T271 855H321Q321 798 302 760T241 721Z"  />
<glyph unicode="&#xC4;" horiz-adv-x="398" d="M330 773Q330 751 314 736T275 720Q253 720 238 735T222 773Q222 796 237 811T275 827Q298 827 314 812T330 773ZM176 773Q176 751 161 736T122 720Q100 720 84 735T68 773Q68 796 84 811T122 827Q145 827 160 812T176 773ZM288 0L265 136H133L110 0H3L139 667H259L395 0H288ZM199 548L145 228H253L199 548Z"  />
<glyph unicode="&#xC5;" horiz-adv-x="398" d="M288 0L265 136H133L110 0H3L139 667H259L395 0H288ZM199 548L145 228H253L199 548ZM199 693Q181 693 166 700T139 718T120 746T113 780Q113 798 120 813T138 840T165 859T199 866Q217 866 232 859T260 841T278 814T285 780Q285 744 260 719T199 693ZM199 737Q217 737 229 749T242 780Q242 797 230 809T199 822Q182 822 170 810T157 780Q157 762 169 750T199 737Z"  />
<glyph unicode="&#xC6;" horiz-adv-x="584" d="M275 0V136H156L115 0H9L230 667H548V575H380V386H541V294H380V92H548V0H275ZM275 548L181 228H275V548Z"  />
<glyph unicode="&#xC7;" horiz-adv-x="412" d="M225 -189Q200 -189 179 -180T143 -158L163 -117Q178 -130 192 -137T223 -144Q241 -144 254 -134T267 -106Q267 -92 260 -84T241 -76Q225 -76 214 -89L177 -68L199 -9Q156 -1 125 28T75 102T46 206T36 333Q36 407 47 470T81 579T142 652T230 678Q267 678 292 665T336 631T365 584T385 533L301 502Q290 540 275 562T230 585Q206 585 190 566T163 514T148 434T143 333Q143 279 147 233T162 153T189 100T230 81Q263 81 278 109T302 180L387 149Q381 123 371 96T344 47T304 9T248 -11L233 -50Q240 -45 246 -43T262 -40Q285 -40 301 -58T318 -107Q318 -144 292 -166T225 -189Z"  />
<glyph unicode="&#xC8;" d="M57 0V667H330V575H161V386H323V294H161V92H330V0H57ZM173 723L70 867H155L234 723H173Z"  />
<glyph unicode="&#xC9;" d="M213 723H152L231 867H316L213 723ZM57 0V667H330V575H161V386H323V294H161V92H330V0H57Z"  />
<glyph unicode="&#xCA;" d="M250 723L193 821L140 723H86L150 867H237L303 723H250ZM57 0V667H330V575H161V386H323V294H161V92H330V0H57Z"  />
<glyph unicode="&#xCB;" d="M326 773Q326 751 310 736T271 720Q249 720 234 735T218 773Q218 796 233 811T271 827Q294 827 310 812T326 773ZM172 773Q172 751 157 736T118 720Q96 720 80 735T64 773Q64 796 80 811T118 827Q141 827 156 812T172 773ZM57 0V667H330V575H161V386H323V294H161V92H330V0H57Z"  />
<glyph unicode="&#xCC;" horiz-adv-x="218" d="M57 0V667H161V0H57ZM91 723L-12 867H73L152 723H91Z"  />
<glyph unicode="&#xCD;" horiz-adv-x="218" d="M57 0V667H161V0H57ZM129 723H68L147 867H232L129 723Z"  />
<glyph unicode="&#xCE;" horiz-adv-x="218" d="M165 723L108 821L55 723H1L65 867H152L218 723H165ZM57 0V667H161V0H57Z"  />
<glyph unicode="&#xCF;" horiz-adv-x="218" d="M244 773Q244 751 228 736T189 720Q167 720 152 735T136 773Q136 796 151 811T189 827Q212 827 228 812T244 773ZM90 773Q90 751 75 736T36 720Q14 720 -2 735T-18 773Q-18 796 -2 811T36 827Q59 827 74 812T90 773ZM57 0V667H161V0H57Z"  />
<glyph unicode="&#xD0;" horiz-adv-x="476" d="M78 0V290H18V366H78V667H227Q284 667 324 642T390 572T428 466T440 333Q440 261 428 200T391 94T325 25T228 0H78ZM227 92Q282 92 307 157T333 333Q333 447 308 511T227 575H182V366H256V290H182V92H227Z"  />
<glyph unicode="&#xD1;" horiz-adv-x="463" d="M271 721Q251 721 239 734T218 762T202 791T185 804Q174 804 166 786T158 727H108Q108 784 128 822T188 861Q208 861 220 848T241 820T257 791T275 778Q286 778 293 796T301 855H351Q351 798 332 760T271 721ZM308 0L161 386V0H57V667H161L302 292V667H407V0H308Z"  />
<glyph unicode="&#xD2;" horiz-adv-x="459" d="M209 723L106 867H191L270 723H209ZM229 -12Q177 -12 141 14T81 87T47 197T36 333Q36 405 46 468T80 577T140 651T229 678Q281 678 317 651T377 578T412 468T423 333Q423 260 412 197T378 88T318 15T229 -12ZM229 81Q253 81 270 101T297 155T311 235T316 333Q316 386 312 432T297 512T270 565T229 585Q205 585 189 566T162 512T148 432T143 333Q143 281 147 235T162 155T188 101T229 81Z"  />
<glyph unicode="&#xD3;" horiz-adv-x="459" d="M249 723H188L267 867H352L249 723ZM229 -12Q177 -12 141 14T81 87T47 197T36 333Q36 405 46 468T80 577T140 651T229 678Q281 678 317 651T377 578T412 468T423 333Q423 260 412 197T378 88T318 15T229 -12ZM229 81Q253 81 270 101T297 155T311 235T316 333Q316 386 312 432T297 512T270 565T229 585Q205 585 189 566T162 512T148 432T143 333Q143 281 147 235T162 155T188 101T229 81Z"  />
<glyph unicode="&#xD4;" horiz-adv-x="459" d="M286 723L229 821L176 723H122L186 867H273L339 723H286ZM229 -12Q177 -12 141 14T81 87T47 197T36 333Q36 405 46 468T80 577T140 651T229 678Q281 678 317 651T377 578T412 468T423 333Q423 260 412 197T378 88T318 15T229 -12ZM229 81Q253 81 270 101T297 155T311 235T316 333Q316 386 312 432T297 512T270 565T229 585Q205 585 189 566T162 512T148 432T143 333Q143 281 147 235T162 155T188 101T229 81Z"  />
<glyph unicode="&#xD5;" horiz-adv-x="459" d="M229 -12Q177 -12 141 14T81 87T47 197T36 333Q36 405 46 468T80 577T140 651T229 678Q281 678 317 651T377 578T412 468T423 333Q423 260 412 197T378 88T318 15T229 -12ZM229 81Q253 81 270 101T297 155T311 235T316 333Q316 386 312 432T297 512T270 565T229 585Q205 585 189 566T162 512T148 432T143 333Q143 281 147 235T162 155T188 101T229 81ZM272 721Q252 721 240 734T219 762T203 791T186 804Q175 804 167 786T159 727H109Q109 784 129 822T189 861Q209 861 221 848T242 820T258 791T276 778Q287 778 294 796T302 855H352Q352 798 333 760T272 721Z"  />
<glyph unicode="&#xD6;" horiz-adv-x="459" d="M361 773Q361 751 345 736T306 720Q284 720 269 735T253 773Q253 796 268 811T306 827Q329 827 345 812T361 773ZM207 773Q207 751 192 736T153 720Q131 720 115 735T99 773Q99 796 115 811T153 827Q176 827 191 812T207 773ZM229 -12Q177 -12 141 14T81 87T47 197T36 333Q36 405 46 468T80 577T140 651T229 678Q281 678 317 651T377 578T412 468T423 333Q423 260 412 197T378 88T318 15T229 -12ZM229 81Q253 81 270 101T297 155T311 235T316 333Q316 386 312 432T297 512T270 565T229 585Q205 585 189 566T162 512T148 432T143 333Q143 281 147 235T162 155T188 101T229 81Z"  />
<glyph unicode="&#xD7;" horiz-adv-x="381" d="M190 290L87 187L43 231L147 334L43 437L87 481L190 378L294 481L338 437L234 334L338 231L294 187L190 290Z"  />
<glyph unicode="&#xD8;" horiz-adv-x="459" d="M229 -12Q166 -12 124 28L111 0H47L84 81Q58 129 47 193T36 333Q36 405 46 468T80 577T140 651T229 678Q291 678 335 637L349 667H413L375 583Q400 535 411 472T423 333Q423 260 412 197T378 88T318 15T229 -12ZM143 333Q143 304 144 277T148 224L288 534Q278 558 264 571T229 585Q205 585 189 566T162 512T148 432T143 333ZM229 81Q253 81 270 101T297 155T311 235T316 333Q316 392 310 440L170 131Q192 81 229 81Z"  />
<glyph unicode="&#xD9;" horiz-adv-x="464" d="M232 -12Q197 -12 165 -1T109 35T71 96T57 184V667H161V179Q161 124 180 102T232 80Q264 80 283 102T303 179V667H407V184Q407 133 393 96T355 35T299 0T232 -12ZM212 723L109 867H194L273 723H212Z"  />
<glyph unicode="&#xDA;" horiz-adv-x="464" d="M252 723H191L270 867H355L252 723ZM232 -12Q197 -12 165 -1T109 35T71 96T57 184V667H161V179Q161 124 180 102T232 80Q264 80 283 102T303 179V667H407V184Q407 133 393 96T355 35T299 0T232 -12Z"  />
<glyph unicode="&#xDB;" horiz-adv-x="464" d="M288 723L231 821L178 723H124L188 867H275L341 723H288ZM232 -12Q197 -12 165 -1T109 35T71 96T57 184V667H161V179Q161 124 180 102T232 80Q264 80 283 102T303 179V667H407V184Q407 133 393 96T355 35T299 0T232 -12Z"  />
<glyph unicode="&#xDC;" horiz-adv-x="464" d="M363 773Q363 751 347 736T308 720Q286 720 271 735T255 773Q255 796 270 811T308 827Q331 827 347 812T363 773ZM209 773Q209 751 194 736T155 720Q133 720 117 735T101 773Q101 796 117 811T155 827Q178 827 193 812T209 773ZM232 -12Q197 -12 165 -1T109 35T71 96T57 184V667H161V179Q161 124 180 102T232 80Q264 80 283 102T303 179V667H407V184Q407 133 393 96T355 35T299 0T232 -12Z"  />
<glyph unicode="&#xDD;" horiz-adv-x="405" d="M151 0V279L-3 667H109L203 382L298 667H408L255 279V0H151ZM223 723H162L241 867H326L223 723Z"  />
<glyph unicode="&#xDE;" horiz-adv-x="418" d="M57 0V667H161V552H218Q264 552 297 535T351 490T383 424T394 345Q394 304 384 267T352 202T297 157T218 140H161V0H57ZM208 232Q247 232 267 263T287 345Q287 396 267 428T208 460H161V232H208Z"  />
<glyph unicode="&#xDF;" horiz-adv-x="489" d="M475 126Q475 99 465 74T436 30T391 0T333 -12Q285 -12 253 4T195 50L231 116Q243 100 264 82T316 64Q340 64 358 80T376 124Q376 147 364 163T332 193T291 221T250 253T219 296T206 358Q206 392 221 414T254 454T287 489T302 532Q302 558 282 576T230 594Q197 594 174 573T151 502V0H58V502Q58 539 70 571T104 626T158 663T230 677Q264 677 294 667T347 638T383 595T396 542Q396 503 381 479T347 436T314 403T298 366Q298 344 311 330T344 302T386 275T429 242T462 195T475 126Z"  />
<glyph unicode="&#xE0;" horiz-adv-x="398" d="M254 0V45Q237 16 210 2T156 -12Q99 -12 64 31T28 149Q28 222 63 264T156 307Q182 307 210 294T254 253V320Q254 365 237 390T180 415Q156 415 132 404T83 366L47 432Q78 466 120 480T198 495Q270 495 309 458T348 340V0H254ZM187 53Q207 53 225 68T254 110V183Q243 209 225 225T187 241Q154 241 138 214T122 147Q122 109 138 81T187 53ZM178 556L75 700H160L239 556H178Z"  />
<glyph unicode="&#xE1;" horiz-adv-x="398" d="M254 0V45Q237 16 210 2T156 -12Q99 -12 64 31T28 149Q28 222 63 264T156 307Q182 307 210 294T254 253V320Q254 365 237 390T180 415Q156 415 132 404T83 366L47 432Q78 466 120 480T198 495Q270 495 309 458T348 340V0H254ZM187 53Q207 53 225 68T254 110V183Q243 209 225 225T187 241Q154 241 138 214T122 147Q122 109 138 81T187 53ZM218 556H157L236 700H321L218 556Z"  />
<glyph unicode="&#xE2;" horiz-adv-x="398" d="M254 0V45Q237 16 210 2T156 -12Q99 -12 64 31T28 149Q28 222 63 264T156 307Q182 307 210 294T254 253V320Q254 365 237 390T180 415Q156 415 132 404T83 366L47 432Q78 466 120 480T198 495Q270 495 309 458T348 340V0H254ZM187 53Q207 53 225 68T254 110V183Q243 209 225 225T187 241Q154 241 138 214T122 147Q122 109 138 81T187 53ZM257 556L200 654L147 556H93L157 700H244L310 556H257Z"  />
<glyph unicode="&#xE3;" horiz-adv-x="398" d="M254 0V45Q237 16 210 2T156 -12Q99 -12 64 31T28 149Q28 222 63 264T156 307Q182 307 210 294T254 253V320Q254 365 237 390T180 415Q156 415 132 404T83 366L47 432Q78 466 120 480T198 495Q270 495 309 458T348 340V0H254ZM187 53Q207 53 225 68T254 110V183Q243 209 225 225T187 241Q154 241 138 214T122 147Q122 109 138 81T187 53ZM241 554Q221 554 209 567T188 595T172 624T155 637Q144 637 136 619T128 560H78Q78 617 98 655T158 694Q178 694 190 681T211 653T227 624T245 611Q256 611 263 629T271 688H321Q321 631 302 593T241 554Z"  />
<glyph unicode="&#xE4;" horiz-adv-x="398" d="M254 0V45Q237 16 210 2T156 -12Q99 -12 64 31T28 149Q28 222 63 264T156 307Q182 307 210 294T254 253V320Q254 365 237 390T180 415Q156 415 132 404T83 366L47 432Q78 466 120 480T198 495Q270 495 309 458T348 340V0H254ZM187 53Q207 53 225 68T254 110V183Q243 209 225 225T187 241Q154 241 138 214T122 147Q122 109 138 81T187 53ZM331 606Q331 584 315 569T276 553Q254 553 239 568T223 606Q223 629 238 644T276 660Q299 660 315 645T331 606ZM177 606Q177 584 162 569T123 553Q101 553 85 568T69 606Q69 629 85 644T123 660Q146 660 161 645T177 606Z"  />
<glyph unicode="&#xE5;" horiz-adv-x="398" d="M254 0V45Q237 16 210 2T156 -12Q99 -12 64 31T28 149Q28 222 63 264T156 307Q182 307 210 294T254 253V320Q254 365 237 390T180 415Q156 415 132 404T83 366L47 432Q78 466 120 480T198 495Q270 495 309 458T348 340V0H254ZM187 53Q207 53 225 68T254 110V183Q243 209 225 225T187 241Q154 241 138 214T122 147Q122 109 138 81T187 53ZM199 540Q181 540 166 547T139 565T120 593T113 627Q113 645 120 660T138 687T165 706T199 713Q217 713 232 706T260 688T278 661T285 627Q285 591 260 566T199 540ZM199 584Q217 584 229 596T242 627Q242 644 230 656T199 669Q182 669 170 657T157 627Q157 609 169 597T199 584Z"  />
<glyph unicode="&#xE6;" horiz-adv-x="611" d="M349 211Q350 146 373 106T445 65Q465 65 486 78T523 117L571 66Q545 29 510 9T434 -12Q408 -12 389 -7T354 9T328 34T306 65Q288 36 255 12T170 -12Q101 -12 65 30T28 146Q28 220 63 263T158 307Q184 307 213 294T259 253V320Q259 365 242 390T183 415Q131 415 83 366L47 432Q79 467 120 481T192 495Q239 495 267 471T306 418Q313 431 322 445T346 470T379 488T424 495Q466 495 496 475T545 421T574 341T584 242V211H349ZM493 278Q493 302 490 326T479 371T458 405T422 418Q400 418 386 405T364 370T352 325T349 278H493ZM259 183Q248 209 229 225T189 241Q158 241 140 216T122 151Q122 107 140 84T189 61Q220 61 239 90T259 158V183Z"  />
<glyph unicode="&#xE7;" horiz-adv-x="333" d="M203 -191Q178 -191 157 -182T121 -160L141 -119Q156 -132 170 -139T201 -146Q219 -146 232 -136T245 -108Q245 -94 238 -86T219 -78Q203 -78 192 -91L155 -70L177 -9Q142 -3 115 18T69 73T41 149T31 242Q31 296 42 342T76 423T131 476T205 495Q243 495 270 483T314 451L281 379Q252 412 220 412Q196 412 179 398T150 361T134 307T128 242Q128 208 133 177T150 123T178 85T220 71Q252 71 281 104L314 32Q283 -4 227 -11L211 -52Q218 -47 224 -45T240 -42Q263 -42 279 -60T296 -109Q296 -146 270 -168T203 -191Z"  />
<glyph unicode="&#xE8;" horiz-adv-x="391" d="M213 -12Q168 -12 134 7T77 60T43 140T31 242Q31 294 41 340T73 421T126 475T201 495Q244 495 275 476T326 422T355 342T364 244V211H123Q124 147 148 106T222 65Q243 65 264 78T302 117L351 66Q325 29 289 9T213 -12ZM272 278Q272 302 269 326T258 371T235 405T198 418Q175 418 161 405T138 370T127 325T123 278H272ZM181 556L78 700H163L242 556H181Z"  />
<glyph unicode="&#xE9;" horiz-adv-x="391" d="M221 556H160L239 700H324L221 556ZM213 -12Q168 -12 134 7T77 60T43 140T31 242Q31 294 41 340T73 421T126 475T201 495Q244 495 275 476T326 422T355 342T364 244V211H123Q124 147 148 106T222 65Q243 65 264 78T302 117L351 66Q325 29 289 9T213 -12ZM272 278Q272 302 269 326T258 371T235 405T198 418Q175 418 161 405T138 370T127 325T123 278H272Z"  />
<glyph unicode="&#xEA;" horiz-adv-x="391" d="M257 556L200 654L147 556H93L157 700H244L310 556H257ZM213 -12Q168 -12 134 7T77 60T43 140T31 242Q31 294 41 340T73 421T126 475T201 495Q244 495 275 476T326 422T355 342T364 244V211H123Q124 147 148 106T222 65Q243 65 264 78T302 117L351 66Q325 29 289 9T213 -12ZM272 278Q272 302 269 326T258 371T235 405T198 418Q175 418 161 405T138 370T127 325T123 278H272Z"  />
<glyph unicode="&#xEB;" horiz-adv-x="391" d="M332 606Q332 584 316 569T277 553Q255 553 240 568T224 606Q224 629 239 644T277 660Q300 660 316 645T332 606ZM178 606Q178 584 163 569T124 553Q102 553 86 568T70 606Q70 629 86 644T124 660Q147 660 162 645T178 606ZM213 -12Q168 -12 134 7T77 60T43 140T31 242Q31 294 41 340T73 421T126 475T201 495Q244 495 275 476T326 422T355 342T364 244V211H123Q124 147 148 106T222 65Q243 65 264 78T302 117L351 66Q325 29 289 9T213 -12ZM272 278Q272 302 269 326T258 371T235 405T198 418Q175 418 161 405T138 370T127 325T123 278H272Z"  />
<glyph unicode="&#xEC;" horiz-adv-x="194" d="M50 0V483H144V0H50ZM79 556L-24 700H61L140 556H79Z"  />
<glyph unicode="&#xED;" horiz-adv-x="194" d="M117 556H56L135 700H220L117 556ZM50 0V483H144V0H50Z"  />
<glyph unicode="&#xEE;" horiz-adv-x="194" d="M155 556L98 654L45 556H-9L55 700H142L208 556H155ZM50 0V483H144V0H50Z"  />
<glyph unicode="&#xEF;" horiz-adv-x="194" d="M230 606Q230 584 214 569T175 553Q153 553 138 568T122 606Q122 629 137 644T175 660Q198 660 214 645T230 606ZM76 606Q76 584 61 569T22 553Q0 553 -16 568T-32 606Q-32 629 -16 644T22 660Q45 660 60 645T76 606ZM50 0V483H144V0H50Z"  />
<glyph unicode="&#xF0;" horiz-adv-x="402" d="M107 551L202 593Q194 610 186 626T168 657L251 696Q260 680 269 664T286 630L353 660L373 614L307 584Q338 509 354 428T370 264Q370 204 361 154T331 66T278 9T201 -12Q156 -12 124 8T71 62T41 139T31 231Q31 279 39 322T66 399T111 452T176 472Q211 472 232 453T265 407Q259 439 248 475T223 546L128 504L107 551ZM201 71Q222 71 236 84T258 120T269 171T273 231Q273 261 270 289T258 340T236 375T201 389Q180 389 166 376T144 340T133 290T129 231Q129 200 132 172T144 121T166 85T201 71Z"  />
<glyph unicode="&#xF1;" horiz-adv-x="402" d="M258 0V356Q258 412 217 412Q193 412 174 390T144 342V0H50V483H144V418Q151 433 163 447T190 471T221 488T255 495Q307 495 329 467T352 387V0H258ZM244 554Q224 554 212 567T191 595T175 624T158 637Q147 637 139 619T131 560H81Q81 617 101 655T161 694Q181 694 193 681T214 653T230 624T248 611Q259 611 266 629T274 688H324Q324 631 305 593T244 554Z"  />
<glyph unicode="&#xF2;" horiz-adv-x="402" d="M201 -12Q156 -12 124 9T71 65T41 146T31 242Q31 292 40 337T71 418T124 474T201 495Q246 495 278 474T330 418T360 338T370 242Q370 192 361 146T331 65T278 9T201 -12ZM201 71Q222 71 236 85T258 123T270 178T273 242Q273 275 270 305T259 360T236 398T201 412Q180 412 166 398T144 360T132 306T129 242Q129 209 132 178T143 123T166 85T201 71ZM181 556L78 700H163L242 556H181Z"  />
<glyph unicode="&#xF3;" horiz-adv-x="402" d="M221 556H160L239 700H324L221 556ZM201 -12Q156 -12 124 9T71 65T41 146T31 242Q31 292 40 337T71 418T124 474T201 495Q246 495 278 474T330 418T360 338T370 242Q370 192 361 146T331 65T278 9T201 -12ZM201 71Q222 71 236 85T258 123T270 178T273 242Q273 275 270 305T259 360T236 398T201 412Q180 412 166 398T144 360T132 306T129 242Q129 209 132 178T143 123T166 85T201 71Z"  />
<glyph unicode="&#xF4;" horiz-adv-x="402" d="M257 556L200 654L147 556H93L157 700H244L310 556H257ZM201 -12Q156 -12 124 9T71 65T41 146T31 242Q31 292 40 337T71 418T124 474T201 495Q246 495 278 474T330 418T360 338T370 242Q370 192 361 146T331 65T278 9T201 -12ZM201 71Q222 71 236 85T258 123T270 178T273 242Q273 275 270 305T259 360T236 398T201 412Q180 412 166 398T144 360T132 306T129 242Q129 209 132 178T143 123T166 85T201 71Z"  />
<glyph unicode="&#xF5;" horiz-adv-x="402" d="M201 -12Q156 -12 124 9T71 65T41 146T31 242Q31 292 40 337T71 418T124 474T201 495Q246 495 278 474T330 418T360 338T370 242Q370 192 361 146T331 65T278 9T201 -12ZM201 71Q222 71 236 85T258 123T270 178T273 242Q273 275 270 305T259 360T236 398T201 412Q180 412 166 398T144 360T132 306T129 242Q129 209 132 178T143 123T166 85T201 71ZM243 554Q223 554 211 567T190 595T174 624T157 637Q146 637 138 619T130 560H80Q80 617 100 655T160 694Q180 694 192 681T213 653T229 624T247 611Q258 611 265 629T273 688H323Q323 631 304 593T243 554Z"  />
<glyph unicode="&#xF6;" horiz-adv-x="402" d="M332 606Q332 584 316 569T277 553Q255 553 240 568T224 606Q224 629 239 644T277 660Q300 660 316 645T332 606ZM178 606Q178 584 163 569T124 553Q102 553 86 568T70 606Q70 629 86 644T124 660Q147 660 162 645T178 606ZM201 -12Q156 -12 124 9T71 65T41 146T31 242Q31 292 40 337T71 418T124 474T201 495Q246 495 278 474T330 418T360 338T370 242Q370 192 361 146T331 65T278 9T201 -12ZM201 71Q222 71 236 85T258 123T270 178T273 242Q273 275 270 305T259 360T236 398T201 412Q180 412 166 398T144 360T132 306T129 242Q129 209 132 178T143 123T166 85T201 71Z"  />
<glyph unicode="&#xF7;" horiz-adv-x="374" d="M239 480Q239 459 224 444T188 428Q167 428 152 443T137 480Q137 501 152 516T188 531Q209 531 224 516T239 480ZM29 306V368H345V306H29ZM239 191Q239 170 224 155T188 140Q167 140 152 155T137 191Q137 212 152 227T188 243Q209 243 224 228T239 191Z"  />
<glyph unicode="&#xF8;" horiz-adv-x="402" d="M39 0L73 61Q51 96 41 143T31 242Q31 292 40 337T71 418T124 474T201 495Q230 495 253 486T295 461L308 483H363L328 421Q350 386 360 340T370 242Q370 192 361 146T331 65T278 9T201 -12Q145 -12 106 22L94 0H39ZM201 71Q222 71 236 85T258 123T270 178T273 242Q273 261 272 279T269 314L151 104Q168 71 201 71ZM129 242Q129 222 130 204T133 169L250 379Q242 394 230 403T201 412Q180 412 166 398T144 360T132 306T129 242Z"  />
<glyph unicode="&#xF9;" horiz-adv-x="402" d="M258 0V63Q243 33 213 11T147 -12Q95 -12 73 15T50 95V483H144V126Q144 71 185 71Q209 71 228 92T258 139V483H352V0H258ZM181 556L78 700H163L242 556H181Z"  />
<glyph unicode="&#xFA;" horiz-adv-x="402" d="M221 556H160L239 700H324L221 556ZM258 0V63Q243 33 213 11T147 -12Q95 -12 73 15T50 95V483H144V126Q144 71 185 71Q209 71 228 92T258 139V483H352V0H258Z"  />
<glyph unicode="&#xFB;" horiz-adv-x="402" d="M257 556L200 654L147 556H93L157 700H244L310 556H257ZM258 0V63Q243 33 213 11T147 -12Q95 -12 73 15T50 95V483H144V126Q144 71 185 71Q209 71 228 92T258 139V483H352V0H258Z"  />
<glyph unicode="&#xFC;" horiz-adv-x="402" d="M333 606Q333 584 317 569T278 553Q256 553 241 568T225 606Q225 629 240 644T278 660Q301 660 317 645T333 606ZM179 606Q179 584 164 569T125 553Q103 553 87 568T71 606Q71 629 87 644T125 660Q148 660 163 645T179 606ZM258 0V63Q243 33 213 11T147 -12Q95 -12 73 15T50 95V483H144V126Q144 71 185 71Q209 71 228 92T258 139V483H352V0H258Z"  />
<glyph unicode="&#xFD;" horiz-adv-x="357" d="M51 -107Q56 -110 62 -111T74 -113Q91 -113 100 -104T115 -74L131 -13L5 483H105L178 119L253 483H352L204 -94Q187 -154 160 -175T86 -196Q75 -196 60 -194T37 -189L51 -107ZM198 556H137L216 700H301L198 556Z"  />
<glyph unicode="&#xFE;" horiz-adv-x="406" d="M237 -12Q211 -12 185 4T144 60V-184H50V667H144V424Q160 460 184 477T237 495Q272 495 298 477T341 426T366 346T375 242Q375 186 367 139T341 59T298 7T237 -12ZM208 71Q229 71 242 84T264 121T275 176T278 242Q278 276 275 307T264 361T243 398T208 412Q188 412 170 393T144 345V139Q152 112 170 92T208 71Z"  />
<glyph unicode="&#xFF;" horiz-adv-x="357" d="M51 -107Q56 -110 62 -111T74 -113Q91 -113 100 -104T115 -74L131 -13L5 483H105L178 119L253 483H352L204 -94Q187 -154 160 -175T86 -196Q75 -196 60 -194T37 -189L51 -107ZM314 606Q314 584 298 569T259 553Q237 553 222 568T206 606Q206 629 221 644T259 660Q282 660 298 645T314 606ZM160 606Q160 584 145 569T106 553Q84 553 68 568T52 606Q52 629 68 644T106 660Q129 660 144 645T160 606Z"  />
<glyph unicode="&#x110;" horiz-adv-x="476" d="M78 0V290H18V366H78V667H227Q284 667 324 642T390 572T428 466T440 333Q440 261 428 200T391 94T325 25T228 0H78ZM227 92Q282 92 307 157T333 333Q333 447 308 511T227 575H182V366H256V290H182V92H227Z"  />
<glyph unicode="&#x131;" horiz-adv-x="194" d="M50 0V483H144V0H50Z"  />
<glyph unicode="&#x152;" horiz-adv-x="616" d="M307 0V57Q289 17 261 3T210 -12Q163 -12 130 15T76 88T46 198T36 333Q36 405 45 468T76 577T130 650T210 677Q233 677 261 663T307 610V667H580V575H412V386H573V294H412V92H580V0H307ZM307 481Q296 531 276 557T230 584Q205 584 188 565T161 512T147 432T143 333Q143 280 147 235T161 155T188 101T230 81Q256 81 276 108T307 185V481Z"  />
<glyph unicode="&#x153;" horiz-adv-x="632" d="M365 211Q366 147 389 106T463 65Q485 65 506 78T543 117L592 66Q566 29 531 9T455 -12Q404 -12 374 13T323 86Q304 39 275 14T201 -12Q156 -12 124 9T71 65T41 146T31 242Q31 292 40 337T71 418T124 474T201 495Q245 495 274 471T322 400Q360 495 442 495Q486 495 517 475T567 421T596 341T605 242V211H365ZM514 278Q514 302 511 326T500 371T477 405T440 418Q417 418 403 405T380 370T369 325T365 278H514ZM273 242Q273 275 270 305T259 360T237 398T201 412Q180 412 166 398T144 360T132 306T129 242Q129 209 132 178T143 124T166 86T201 71Q223 71 237 85T259 123T270 178T273 242Z"  />
<glyph unicode="&#x160;" horiz-adv-x="378" d="M164 723L97 867H151L207 769L261 867H314L251 723H164ZM175 -12Q75 -12 16 52L63 134Q83 108 111 95T169 81Q201 81 222 105T244 167Q244 200 229 224T190 269T139 310T89 356T50 417T34 501Q34 538 46 570T80 626T134 664T206 678Q245 678 279 665T340 627L298 547Q261 585 209 585Q180 585 160 564T140 506Q140 477 155 455T194 413T245 371T295 323T334 259T350 173Q350 133 338 99T302 41T247 2T175 -12Z"  />
<glyph unicode="&#x161;" horiz-adv-x="330" d="M128 556L61 700H115L171 602L225 700H278L215 556H128ZM162 -12Q112 -12 76 4T16 50L57 115Q76 92 100 78T154 63Q182 63 200 79T219 123Q219 146 205 161T171 190T126 217T81 250T46 296T32 365Q32 392 41 415T69 457T114 485T175 495Q213 495 246 480T305 439L265 376Q251 395 228 407T177 420Q151 420 136 405T120 368Q120 347 134 332T169 304T214 277T259 243T294 195T308 126Q308 95 297 70T267 26T220 -2T162 -12Z"  />
<glyph unicode="&#x178;" horiz-adv-x="405" d="M336 773Q336 751 320 736T281 720Q259 720 244 735T228 773Q228 796 243 811T281 827Q304 827 320 812T336 773ZM182 773Q182 751 167 736T128 720Q106 720 90 735T74 773Q74 796 90 811T128 827Q151 827 166 812T182 773ZM151 0V279L-3 667H109L203 382L298 667H408L255 279V0H151Z"  />
<glyph unicode="&#x17D;" horiz-adv-x="360" d="M139 723L72 867H126L182 769L236 867H289L226 723H139ZM31 0V89L206 575H31V667H323V582L145 92H330V0H31Z"  />
<glyph unicode="&#x17E;" horiz-adv-x="321" d="M117 556L50 700H104L160 602L214 700H267L204 556H117ZM30 0V72L176 401H30V483H287V414L141 82H291V0H30Z"  />
<glyph unicode="&#x192;" horiz-adv-x="383" d="M17 -161L107 248H63V332H126L176 557Q182 584 195 606T228 644T270 668T319 677Q338 677 358 672T393 653L360 572Q350 585 330 585Q309 585 296 571T277 532L233 332H316V248H214L123 -161H17Z"  />
<glyph unicode="&#x2C6;" horiz-adv-x="217" d="M164 556L107 654L54 556H0L64 700H151L217 556H164Z"  />
<glyph unicode="&#x2C7;" horiz-adv-x="217" d="M67 556L0 700H54L110 602L164 700H217L154 556H67Z"  />
<glyph unicode="&#x2DA;" horiz-adv-x="172" d="M86 540Q68 540 53 547T26 565T7 593T0 627Q0 645 7 660T25 687T52 706T86 713Q104 713 119 706T147 688T165 661T172 627Q172 591 147 566T86 540ZM86 584Q104 584 116 596T129 627Q129 644 117 656T86 669Q69 669 57 657T44 627Q44 609 56 597T86 584Z"  />
<glyph unicode="&#x2DC;" horiz-adv-x="243" d="M163 554Q143 554 131 567T110 595T94 624T77 637Q66 637 58 619T50 560H0Q0 617 20 655T80 694Q100 694 112 681T133 653T149 624T167 611Q178 611 185 629T193 688H243Q243 631 224 593T163 554Z"  />
<glyph unicode="&#x2013;" horiz-adv-x="460" d="M30 201V282H430V201H30Z"  />
<glyph unicode="&#x2014;" horiz-adv-x="640" d="M30 201V282H610V201H30Z"  />
<glyph unicode="&#x2018;" horiz-adv-x="241" d="M51 515Q51 565 76 607T140 677L184 642Q160 627 140 601T114 548Q116 549 120 550T130 551Q153 551 169 535T185 492Q185 466 167 448T122 429Q93 429 72 451T51 515Z"  />
<glyph unicode="&#x2019;" horiz-adv-x="241" d="M189 591Q189 541 164 499T100 429L57 464Q81 479 101 505T126 558Q124 557 120 556T111 555Q87 555 71 571T55 614Q55 640 73 658T118 677Q147 677 168 655T189 591Z"  />
<glyph unicode="&#x201A;" horiz-adv-x="239" d="M189 32Q189 -18 164 -60T100 -130L57 -95Q81 -80 101 -54T126 -1Q124 -2 120 -2T111 -3Q87 -3 71 13T55 55Q55 81 73 99T118 118Q147 118 168 96T189 32Z"  />
<glyph unicode="&#x201C;" horiz-adv-x="416" d="M52 515Q52 565 77 607T140 677L184 642Q160 627 140 601T115 548Q117 549 121 550T130 551Q153 551 169 535T185 492Q185 466 167 448T123 429Q94 429 73 451T52 515ZM227 515Q227 565 252 607T316 677L360 642Q336 627 316 601T291 548Q293 549 297 550T306 551Q329 551 345 535T361 492Q361 466 343 448T299 429Q270 429 249 451T227 515Z"  />
<glyph unicode="&#x201D;" horiz-adv-x="416" d="M365 591Q365 541 340 499T276 429L232 464Q256 479 276 505T301 558Q299 557 295 556T286 555Q263 555 247 571T231 614Q231 640 249 658T294 677Q323 677 344 655T365 591ZM189 591Q189 541 164 499T100 429L57 464Q81 479 101 505T126 558Q124 557 120 556T111 555Q87 555 71 571T55 614Q55 640 73 658T118 677Q147 677 168 655T189 591Z"  />
<glyph unicode="&#x201E;" horiz-adv-x="415" d="M189 32Q189 -18 164 -60T100 -130L57 -95Q81 -80 101 -54T126 -1Q124 -2 120 -2T111 -3Q87 -3 71 13T55 55Q55 81 73 99T118 118Q147 118 168 96T189 32ZM365 32Q365 -18 340 -60T276 -130L232 -95Q256 -80 276 -54T301 -1Q297 -3 286 -3Q263 -3 247 13T231 55Q231 81 249 99T294 118Q323 118 344 96T365 32Z"  />
<glyph unicode="&#x2020;" horiz-adv-x="268" d="M157 532L161 327H106L111 532L22 528V578L111 575L106 677H161L157 575L246 578V528L157 532Z"  />
<glyph unicode="&#x2021;" horiz-adv-x="268" d="M246 528L157 532V326L246 330V280L157 283L161 180H106L110 283L22 280V330L110 326V532L22 528V578L110 575L106 677H161L157 575L246 578V528Z"  />
<glyph unicode="&#x2022;" horiz-adv-x="358" d="M292 242Q292 219 283 199T259 164T224 140T180 131Q157 131 137 140T101 164T77 199T68 242Q68 265 77 285T101 321T136 345T180 354Q203 354 223 345T259 321T283 286T292 242Z"  />
<glyph unicode="&#x2026;" horiz-adv-x="717" d="M184 54Q184 28 165 9T119 -11Q93 -11 74 8T55 54Q55 80 74 99T119 118Q146 118 165 99T184 54ZM423 54Q423 28 404 9T358 -11Q332 -11 313 8T294 54Q294 80 313 99T358 118Q385 118 404 99T423 54ZM662 54Q662 28 643 9T597 -11Q571 -11 552 8T533 54Q533 80 552 99T597 118Q624 118 643 99T662 54Z"  />
<glyph unicode="&#x2030;" horiz-adv-x="855" d="M276 511Q276 476 267 446T242 394T202 360T150 347Q121 347 98 359T59 394T33 446T24 511Q24 546 33 576T58 629T98 664T150 677Q179 677 202 665T241 630T267 577T276 511ZM175 0H129L405 667H452L175 0ZM556 152Q556 117 547 87T522 35T482 1T430 -12Q401 -12 378 0T339 35T313 87T304 152Q304 187 313 217T338 270T378 305T430 318Q459 318 482 306T521 271T547 218T556 152ZM210 511Q210 558 195 587T150 616Q121 616 106 587T90 511Q90 466 105 437T150 407Q179 407 194 436T210 511ZM490 152Q490 199 475 228T430 257Q401 257 386 228T370 152Q370 107 385 78T430 49Q459 49 474 78T490 152ZM831 152Q831 117 822 87T797 35T757 1T705 -12Q676 -12 653 0T614 35T589 87T580 152Q580 187 588 217T613 270T653 305T705 318Q734 318 757 306T796 271T822 218T831 152ZM765 152Q765 199 750 228T705 257Q676 257 661 228T645 152Q645 107 660 78T705 49Q734 49 749 78T765 152Z"  />
<glyph unicode="&#x2039;" horiz-adv-x="225" d="M120 63L30 243L120 420H195L105 243L195 63H120Z"  />
<glyph unicode="&#x203A;" horiz-adv-x="225" d="M105 63H30L120 243L30 420H105L195 243L105 63Z"  />
<glyph unicode="&#x2044;" horiz-adv-x="125" d="M-53 0H-99L177 667H224L-53 0Z"  />
<glyph unicode="&#x20AC;" horiz-adv-x="427" d="M245 -12Q203 -12 171 6T115 56T78 133T56 233H15V294H52Q51 303 51 313T51 333Q51 344 51 353T52 374H15V436H57Q63 490 77 534T115 611T171 660T245 678Q282 678 307 665T351 631T380 584T400 533L316 502Q305 540 290 562T245 585Q209 585 190 545T163 436H271V374H158V333V294H271V233H162Q170 164 189 123T245 81Q278 81 293 109T317 180L402 149Q395 121 384 93T355 41T310 3T245 -12Z"  />
<glyph unicode="&#x2122;" horiz-adv-x="374" d="M311 447V629L256 447H248L193 629V447H165V667H208L252 510L296 667H339V447H311ZM87 641V447H59V641H17V667H129V641H87Z"  />
<glyph unicode="&#xF656;" horiz-adv-x="232" d="M111 0V306L53 246L11 289L121 400H184V0H111Z"  />
<glyph unicode="&#xF657;" horiz-adv-x="281" d="M29 0V54Q79 113 110 151T158 214T181 257T187 293Q187 317 173 332T136 347Q115 347 97 334T65 298L20 340Q41 372 70 389T140 406Q194 406 226 377T259 295Q259 273 252 252T229 203T186 142T120 59H261V0H29Z"  />
<glyph unicode="&#xF658;" horiz-adv-x="281" d="M262 110Q262 57 229 25T139 -7Q96 -7 65 11T17 58L65 101Q77 79 95 66T136 52Q165 52 177 69T190 114Q190 132 185 144T171 163T153 173T132 176Q124 176 117 176T104 175V234Q108 233 115 233T129 233Q155 233 170 246T185 289Q185 319 172 333T135 347Q114 347 97 335T67 302L21 342Q41 373 71 389T139 406Q190 406 223 380T256 298Q256 266 237 240T189 207Q218 202 240 175T262 110Z"  />
<glyph unicode="&#xF659;" horiz-adv-x="281" d="M232 95V0H160V95H15V153L144 400H232V153H267V95H232ZM160 319L77 153H160V319Z"  />


</font>
</defs>
</svg>
